<svg width="16" height="16" viewBox="0 0 16 16" fill="none" xmlns="http://www.w3.org/2000/svg">
<path d="M7.23358 11.4465C6.50022 11.8465 6.23356 12.7131 6.63356 13.3798C7.03358 14.1131 7.90024 14.3798 8.56691 13.9798L8.76691 13.8465C12.5669 11.7798 13.1669 12.0465 15.5002 11.9131L12.7669 6.77979C11.3002 8.84645 11.2336 9.24645 7.23358 11.4465Z" stroke="#665B5B" stroke-miterlimit="10" stroke-linecap="round" stroke-linejoin="round"/>
<path d="M8.38867 10.7988L10.2335 14.7132C10.6335 15.4465 11.5001 15.7132 12.1668 15.3132" stroke="#665B5B" stroke-miterlimit="10" stroke-linecap="round" stroke-linejoin="round"/>
<path d="M6.29986 3.03333C6.99944 3.03333 7.5665 2.46621 7.5665 1.76664C7.5665 1.06708 6.99944 0.5 6.29986 0.5C5.6003 0.5 5.0332 1.06708 5.0332 1.76664C5.0332 2.46621 5.6003 3.03333 6.29986 3.03333Z" stroke="#665B5B" stroke-miterlimit="10" stroke-linecap="round" stroke-linejoin="round"/>
<path d="M1.76668 5.63346C2.46625 5.63346 3.03335 5.06634 3.03335 4.36678C3.03335 3.66722 2.46625 3.1001 1.76668 3.1001C1.06712 3.1001 0.5 3.66722 0.5 4.36678C0.5 5.06634 1.06712 5.63346 1.76668 5.63346Z" stroke="#665B5B" stroke-miterlimit="10" stroke-linecap="round" stroke-linejoin="round"/>
<path d="M10.8336 5.63346C11.5331 5.63346 12.1002 5.06634 12.1002 4.36678C12.1002 3.66722 11.5331 3.1001 10.8336 3.1001C10.134 3.1001 9.56689 3.66722 9.56689 4.36678C9.56689 5.06634 10.134 5.63346 10.8336 5.63346Z" stroke="#665B5B" stroke-miterlimit="10" stroke-linecap="round" stroke-linejoin="round"/>
<path d="M5.16688 10.1667H3.7669C3.23357 10.1667 2.90022 9.56659 3.23356 9.09992L5.83355 5.6333C6.10022 5.29997 6.63356 5.29997 6.90024 5.6333L8.16691 7.29999" stroke="#665B5B" stroke-miterlimit="10" stroke-linecap="round" stroke-linejoin="round"/>
</svg>
