<svg width="16" height="18" viewBox="0 0 16 18" fill="none" xmlns="http://www.w3.org/2000/svg">
<path d="M14.3294 1.66683C14.3294 1.57842 14.2943 1.49364 14.2318 1.43113C14.1692 1.36862 14.0845 1.3335 13.996 1.3335H9.00605C8.94003 1.33338 8.87547 1.35286 8.82055 1.38948C8.76562 1.4261 8.7228 1.47821 8.69753 1.53919C8.67225 1.60017 8.66565 1.66728 8.67856 1.73202C8.69147 1.79676 8.72331 1.85621 8.77005 1.90283L13.7607 6.89283C13.8074 6.93934 13.8668 6.97098 13.9314 6.98376C13.996 6.99654 14.063 6.98988 14.1238 6.96463C14.1847 6.93938 14.2367 6.89667 14.2732 6.84189C14.3098 6.7871 14.3294 6.72271 14.3294 6.65683V1.66683Z" stroke="#282828" stroke-opacity="0.9" stroke-linecap="round" stroke-linejoin="round"/>
<path d="M9.37907 2.51221L13.1503 6.28344L8.90766 10.5261C8.84575 10.588 8.77226 10.6371 8.69138 10.6706C8.61049 10.7041 8.5238 10.7213 8.43626 10.7213C8.34871 10.7213 8.26202 10.7041 8.18113 10.6706C8.10025 10.6371 8.02676 10.588 7.96485 10.5261L5.13642 7.69766C5.07452 7.63575 5.02541 7.56226 4.99191 7.48137C4.95841 7.40049 4.94116 7.3138 4.94116 7.22625C4.94116 7.1387 4.95841 7.05201 4.99191 6.97113C5.02541 6.89025 5.07452 6.81675 5.13642 6.75485L9.37907 2.51221Z" stroke="#282828" stroke-opacity="0.9" stroke-linecap="round" stroke-linejoin="round"/>
<path d="M5.91332 8.80664L1.67065 13.0493" stroke="#282828" stroke-opacity="0.9" stroke-linecap="round" stroke-linejoin="round"/>
<path d="M7.02274 9.58252C7.02274 9.58252 5.13741 10.9972 7.02274 12.8825" stroke="#282828" stroke-opacity="0.9" stroke-linecap="round" stroke-linejoin="round"/>
<path d="M8.99609 16.6665L9.66276 15.3332L10.9961 14.6665L9.66276 13.9998L8.99609 12.6665L8.32943 13.9998L6.99609 14.6665L8.32943 15.3332L8.99609 16.6665Z" stroke="#282828" stroke-opacity="0.9" stroke-linecap="round" stroke-linejoin="round"/>
</svg>
