<svg width="18" height="17" viewBox="0 0 18 17" fill="none" xmlns="http://www.w3.org/2000/svg">
<path d="M7.66667 10.3335H10.3333C10.5101 10.3335 10.6797 10.4037 10.8047 10.5288C10.9298 10.6538 11 10.8234 11 11.0002V15.6668H7V11.0002C7 10.8234 7.07024 10.6538 7.19526 10.5288C7.32029 10.4037 7.48986 10.3335 7.66667 10.3335Z" stroke="#665B5B" stroke-linecap="round" stroke-linejoin="round"/>
<path d="M14.0002 5.60012V2.33345C14.0002 2.24505 13.9651 2.16026 13.9026 2.09775C13.8401 2.03524 13.7553 2.00012 13.6669 2.00012H12.3335C12.2451 2.00012 12.1603 2.03524 12.0978 2.09775C12.0353 2.16026 12.0002 2.24505 12.0002 2.33345V3.76012L9.22553 1.20745C9.16396 1.15067 9.08328 1.11914 8.99953 1.11914C8.91577 1.11914 8.83509 1.15067 8.77353 1.20745L1.44019 8.08812C1.39074 8.13361 1.35618 8.19299 1.34106 8.25847C1.32595 8.32394 1.33097 8.39246 1.35548 8.45503C1.37999 8.5176 1.42284 8.5713 1.4784 8.60909C1.53397 8.64688 1.59966 8.66699 1.66686 8.66679H3.33353V15.0001C3.33353 15.1769 3.40377 15.3465 3.52879 15.4715C3.65381 15.5965 3.82338 15.6668 4.00019 15.6668H14.0002C14.177 15.6668 14.3466 15.5965 14.4716 15.4715C14.5966 15.3465 14.6669 15.1769 14.6669 15.0001V8.66679H16.3335C16.4007 8.66686 16.4663 8.64665 16.5217 8.60881C16.5772 8.57097 16.6199 8.51726 16.6444 8.45472C16.6688 8.39218 16.6738 8.32372 16.6586 8.2583C16.6435 8.19289 16.6089 8.13357 16.5595 8.08812L14.0002 5.60012Z" stroke="#665B5B" stroke-linecap="round" stroke-linejoin="round"/>
</svg>
