<svg width="25" height="24" viewBox="0 0 25 24" fill="none" xmlns="http://www.w3.org/2000/svg">
<path d="M20.3503 19.9999L16.256 15.9499M16.256 15.9499C16.9131 15.2998 17.4344 14.5281 17.7901 13.6788C18.1457 12.8295 18.3288 11.9192 18.3288 10.9999C18.3288 10.0806 18.1457 9.17027 17.7901 8.32095C17.4344 7.47163 16.9131 6.69991 16.256 6.04987C15.5988 5.39983 14.8186 4.88418 13.96 4.53238C13.1014 4.18058 12.1811 3.99951 11.2518 3.99951C10.3224 3.99951 9.40216 4.18058 8.54354 4.53238C7.68492 4.88418 6.90476 5.39983 6.2476 6.04987C4.92041 7.36269 4.1748 9.14326 4.1748 10.9999C4.1748 12.8565 4.92041 14.637 6.2476 15.9499C7.57479 17.2627 9.37485 18.0002 11.2518 18.0002C13.1287 18.0002 14.9288 17.2627 16.256 15.9499Z" stroke="#0D5BAE" stroke-width="2" stroke-linecap="round" stroke-linejoin="round"/>
</svg>
