<svg width="16" height="18" viewBox="0 0 16 18" fill="none" xmlns="http://www.w3.org/2000/svg">
<path d="M8 11.8716V16.3329C8 16.4213 8.03512 16.5061 8.09763 16.5686C8.16014 16.6311 8.24493 16.6662 8.33333 16.6662H13.6667C13.7551 16.6662 13.8399 16.6311 13.9024 16.5686C13.9649 16.5061 14 16.4213 14 16.3329V11.8716" stroke="#665B5B" stroke-linecap="round" stroke-linejoin="round"/>
<path d="M6.6665 12.9998L10.5692 9.69781C10.6895 9.59594 10.8421 9.54004 10.9998 9.54004C11.1575 9.54004 11.3101 9.59594 11.4305 9.69781L15.3332 12.9998" stroke="#665B5B" stroke-linecap="round" stroke-linejoin="round"/>
<path d="M12 16.6665H10V14.6665C10 14.4013 10.1054 14.1469 10.2929 13.9594C10.4804 13.7719 10.7348 13.6665 11 13.6665C11.2652 13.6665 11.5196 13.7719 11.7071 13.9594C11.8946 14.1469 12 14.4013 12 14.6665V16.6665Z" stroke="#665B5B" stroke-linecap="round" stroke-linejoin="round"/>
<path d="M5.99984 16.6668H0.999843C0.911437 16.6668 0.826652 16.6317 0.76414 16.5692C0.701628 16.5066 0.666509 16.4219 0.666509 16.3335V1.89479C0.666182 1.83683 0.680973 1.77979 0.709422 1.72929C0.737871 1.67879 0.778996 1.63658 0.828737 1.60683C0.878479 1.57708 0.935118 1.56082 0.993066 1.55964C1.05101 1.55846 1.10827 1.57241 1.15918 1.60012L7.82584 5.23679C7.87907 5.26575 7.9234 5.30867 7.95406 5.36095C7.98472 5.41322 8.00055 5.47286 7.99984 5.53345V9.33345" stroke="#665B5B" stroke-linecap="round" stroke-linejoin="round"/>
<path d="M6.6665 4.60616V1.3335" stroke="#665B5B" stroke-linecap="round" stroke-linejoin="round"/>
<path d="M0.666504 5.3335H3.33317" stroke="#665B5B" stroke-linecap="round" stroke-linejoin="round"/>
<path d="M0.666504 7.3335H3.99984" stroke="#665B5B" stroke-linecap="round" stroke-linejoin="round"/>
<path d="M0.666504 9.3335H5.33317" stroke="#665B5B" stroke-linecap="round" stroke-linejoin="round"/>
<path d="M3.3335 16.6667V14.3333C3.3335 14.2449 3.36862 14.1601 3.43113 14.0976C3.49364 14.0351 3.57842 14 3.66683 14H5.00016C5.08857 14 5.17335 14.0351 5.23587 14.0976C5.29838 14.1601 5.3335 14.2449 5.3335 14.3333V16.6667" stroke="#665B5B" stroke-linecap="round" stroke-linejoin="round"/>
</svg>
