<svg width="16" height="16" viewBox="0 0 16 16" fill="none" xmlns="http://www.w3.org/2000/svg">
<g clip-path="url(#clip0_192_5665)">
<path d="M6.66667 8.3335H8C8.08841 8.3335 8.17319 8.36861 8.2357 8.43113C8.29821 8.49364 8.33333 8.57842 8.33333 8.66683V9.86016C8.33181 9.92638 8.35087 9.99144 8.38788 10.0464C8.4249 10.1013 8.47805 10.1434 8.54 10.1668C8.5998 10.1929 8.66605 10.2006 8.73022 10.1887C8.79438 10.1768 8.85352 10.146 8.9 10.1002L10.5667 8.4335C10.5977 8.40129 10.635 8.37579 10.6763 8.35859C10.7176 8.34139 10.7619 8.33285 10.8067 8.3335H15.3333C15.4217 8.3335 15.5065 8.29838 15.569 8.23586C15.6315 8.17335 15.6667 8.08857 15.6667 8.00016V0.666829C15.6667 0.578424 15.6315 0.493639 15.569 0.431127C15.5065 0.368615 15.4217 0.333496 15.3333 0.333496H5.33333C5.24493 0.333496 5.16014 0.368615 5.09763 0.431127C5.03512 0.493639 5 0.578424 5 0.666829V2.3335" stroke="#665B5B" stroke-linecap="round" stroke-linejoin="round"/>
<path d="M8.3335 3.4668V6.6668H12.3335V3.4668" stroke="#665B5B" stroke-linecap="round" stroke-linejoin="round"/>
<path d="M7.3335 4.31347L9.8935 2.1668C10.0152 2.05992 10.1716 2.00098 10.3335 2.00098C10.4954 2.00098 10.6518 2.05992 10.7735 2.1668L13.3335 4.31347" stroke="#665B5B" stroke-linecap="round" stroke-linejoin="round"/>
<path d="M9.66699 6.66699V5.33366C9.66699 5.15685 9.73723 4.98728 9.86225 4.86225C9.98728 4.73723 10.1568 4.66699 10.3337 4.66699C10.5105 4.66699 10.68 4.73723 10.8051 4.86225C10.9301 4.98728 11.0003 5.15685 11.0003 5.33366V6.66699" stroke="#665B5B" stroke-linecap="round" stroke-linejoin="round"/>
<path d="M1.16699 5.16683C1.16699 5.65306 1.36015 6.11938 1.70396 6.46319C2.04778 6.80701 2.5141 7.00016 3.00033 7.00016C3.48656 7.00016 3.95287 6.80701 4.29669 6.46319C4.6405 6.11938 4.83366 5.65306 4.83366 5.16683C4.83366 4.6806 4.6405 4.21428 4.29669 3.87047C3.95287 3.52665 3.48656 3.3335 3.00033 3.3335C2.5141 3.3335 2.04778 3.52665 1.70396 3.87047C1.36015 4.21428 1.16699 4.6806 1.16699 5.16683Z" stroke="#665B5B" stroke-linecap="round" stroke-linejoin="round"/>
<path d="M3.00016 7.66699C2.29292 7.66699 1.61464 7.94794 1.11454 8.44804C0.614448 8.94814 0.333496 9.62641 0.333496 10.3337V12.3337H1.66683L2.1135 15.667H3.88683L4.3335 12.3337H5.66683V10.3337C5.66683 9.62641 5.38588 8.94814 4.88578 8.44804C4.38568 7.94794 3.70741 7.66699 3.00016 7.66699Z" stroke="#665B5B" stroke-linecap="round" stroke-linejoin="round"/>
</g>
<defs>
<clipPath id="clip0_192_5665">
<rect width="16" height="16" fill="white"/>
</clipPath>
</defs>
</svg>
