<svg width="18" height="16" viewBox="0 0 18 16" fill="none" xmlns="http://www.w3.org/2000/svg">
<path d="M16.6668 7.35885C16.6668 10.8122 13.2348 13.6135 9.00016 13.6135C8.09024 13.6155 7.18505 13.4825 6.31416 13.2188L2.7755 14.8668C2.71279 14.896 2.64257 14.9049 2.57457 14.8924C2.50656 14.8799 2.44414 14.8465 2.39594 14.7969C2.34775 14.7473 2.31616 14.684 2.30557 14.6156C2.29498 14.5473 2.30591 14.4774 2.33683 14.4155L3.6335 11.8255C2.93663 11.304 2.36745 10.6309 1.96899 9.85712C1.57053 9.0833 1.35322 8.22901 1.3335 7.35885C1.3335 3.90418 4.7655 1.10352 9.00016 1.10352C13.2348 1.10352 16.6668 3.90418 16.6668 7.35885Z" stroke="#665B5B" stroke-linecap="round" stroke-linejoin="round"/>
<path d="M8 10.1032V8.43652C8 8.17131 8.10536 7.91695 8.29289 7.72942C8.48043 7.54188 8.73478 7.43652 9 7.43652C9.26522 7.43652 9.51957 7.54188 9.70711 7.72942C9.89464 7.91695 10 8.17131 10 8.43652V10.1032" stroke="#665B5B" stroke-linecap="round" stroke-linejoin="round"/>
<path d="M6.6665 6.22461V9.76994C6.6665 9.85835 6.70162 9.94313 6.76413 10.0056C6.82665 10.0682 6.91143 10.1033 6.99984 10.1033H10.9998C11.0882 10.1033 11.173 10.0682 11.2355 10.0056C11.2981 9.94313 11.3332 9.85835 11.3332 9.76994V6.22461" stroke="#665B5B" stroke-linecap="round" stroke-linejoin="round"/>
<path d="M5.3335 7.43652L8.77616 4.30719C8.83749 4.25153 8.91735 4.2207 9.00016 4.2207C9.08298 4.2207 9.16283 4.25153 9.22416 4.30719L12.6668 7.43652" stroke="#665B5B" stroke-linecap="round" stroke-linejoin="round"/>
</svg>
